<svg width="111" height="682" viewBox="0 0 111 682" fill="none" xmlns="http://www.w3.org/2000/svg">
<g opacity="0.8">
<mask id="mask0_1727_2077" style="mask-type:luminance" maskUnits="userSpaceOnUse" x="0" y="0" width="111" height="682">
<path d="M111 0.0136719H9.53674e-07V681.509H111V0.0136719Z" fill="white"/>
</mask>
<g mask="url(#mask0_1727_2077)">
<mask id="mask1_1727_2077" style="mask-type:luminance" maskUnits="userSpaceOnUse" x="-2" y="-95" width="837" height="874">
<path d="M-1.08789 -94.0869H834.677V778.227H-1.08789V-94.0869Z" fill="white"/>
</mask>
<g mask="url(#mask1_1727_2077)">
<mask id="mask2_1727_2077" style="mask-type:luminance" maskUnits="userSpaceOnUse" x="-258" y="-39" width="836" height="546">
<path d="M-257.911 -38.2588H577.854V506.937H-257.911V-38.2588Z" fill="white"/>
</mask>
<g mask="url(#mask2_1727_2077)">
<mask id="mask3_1727_2077" style="mask-type:alpha" maskUnits="userSpaceOnUse" x="81" y="157" width="29" height="185">
<path d="M109.986 157.357V341.416H81.9796V157.357H109.986Z" fill="url(#paint0_linear_1727_2077)"/>
</mask>
<g mask="url(#mask3_1727_2077)">
<mask id="mask4_1727_2077" style="mask-type:luminance" maskUnits="userSpaceOnUse" x="75" y="-378" width="42" height="748">
<path d="M75.4542 -377.386H116.372V369.315H75.4542V-377.386Z" fill="white"/>
</mask>
<g mask="url(#mask4_1727_2077)">
<path d="M109.99 -6.21582V177.842H81.9835V-6.21582H109.99Z" fill="url(#paint1_linear_1727_2077)"/>
<path d="M81.9835 360.156V176.098H109.99V360.156H81.9835Z" fill="url(#paint2_linear_1727_2077)"/>
</g>
</g>
<mask id="mask5_1727_2077" style="mask-type:alpha" maskUnits="userSpaceOnUse" x="54" y="111" width="29" height="231">
<path d="M82.4148 111.997V341.416H54.408V111.997H82.4148Z" fill="url(#paint3_linear_1727_2077)"/>
</mask>
<g mask="url(#mask5_1727_2077)">
<mask id="mask6_1727_2077" style="mask-type:luminance" maskUnits="userSpaceOnUse" x="47" y="-539" width="42" height="929">
<path d="M47.8847 -538.937H88.8024V389.205H47.8847V-538.937Z" fill="white"/>
</mask>
<g mask="url(#mask6_1727_2077)">
<path d="M82.4208 -75.3018V154.117H54.414V-75.3018H82.4208Z" fill="url(#paint4_linear_1727_2077)"/>
<path d="M54.414 382.662V153.244H82.4209V382.662H54.414Z" fill="url(#paint5_linear_1727_2077)"/>
</g>
</g>
<mask id="mask7_1727_2077" style="mask-type:alpha" maskUnits="userSpaceOnUse" x="26" y="54" width="29" height="288">
<path d="M54.8437 54.4248V341.416H26.8369V54.4248H54.8437Z" fill="url(#paint6_linear_1727_2077)"/>
</mask>
<g mask="url(#mask7_1727_2077)">
<mask id="mask8_1727_2077" style="mask-type:luminance" maskUnits="userSpaceOnUse" x="21" y="-737" width="42" height="1157">
<path d="M21.1171 -736.005H62.0347V419.811H21.1171V-736.005Z" fill="white"/>
</mask>
<g mask="url(#mask8_1727_2077)">
<path d="M55.6532 -158.097V126.277H27.6464V-158.097H55.6532Z" fill="url(#paint7_linear_1727_2077)"/>
<path d="M27.6464 409.343V124.969H55.6533V409.343H27.6464Z" fill="url(#paint8_linear_1727_2077)"/>
</g>
</g>
<mask id="mask9_1727_2077" style="mask-type:alpha" maskUnits="userSpaceOnUse" x="-1" y="-1" width="29" height="343">
<path d="M27.9247 -0.53125V341.416H-0.0820923V-0.53125H27.9247Z" fill="url(#paint9_linear_1727_2077)"/>
</mask>
<g mask="url(#mask9_1727_2077)">
<mask id="mask10_1727_2077" style="mask-type:luminance" maskUnits="userSpaceOnUse" x="-7" y="-920" width="42" height="1375">
<path d="M-6.66998 -919.977H34.2477V454.79H-6.66998V-919.977Z" fill="white"/>
</mask>
<g mask="url(#mask10_1727_2077)">
<path d="M27.8662 -231.283V107.545H-0.140627V-231.283H27.8662Z" fill="url(#paint10_linear_1727_2077)"/>
<path d="M-0.140671 445.502V106.674H27.8661V445.502H-0.140671Z" fill="url(#paint11_linear_1727_2077)"/>
</g>
</g>
</g>
<mask id="mask11_1727_2077" style="mask-type:luminance" maskUnits="userSpaceOnUse" x="-258" y="174" width="836" height="546">
<path d="M-257.911 719.782H577.854V174.586H-257.911V719.782Z" fill="white"/>
</mask>
<g mask="url(#mask11_1727_2077)">
<mask id="mask12_1727_2077" style="mask-type:alpha" maskUnits="userSpaceOnUse" x="81" y="340" width="29" height="185">
<path d="M109.986 524.166V340.108H81.9796V524.166H109.986Z" fill="url(#paint12_linear_1727_2077)"/>
</mask>
<g mask="url(#mask12_1727_2077)">
<mask id="mask13_1727_2077" style="mask-type:luminance" maskUnits="userSpaceOnUse" x="75" y="312" width="42" height="747">
<path d="M75.4542 1058.91H116.372V312.209H75.4542V1058.91Z" fill="white"/>
</mask>
<g mask="url(#mask13_1727_2077)">
<path d="M109.99 687.739V503.681H81.9835V687.739H109.99Z" fill="url(#paint13_linear_1727_2077)"/>
<path d="M81.9835 321.367V505.425H109.99V321.367H81.9835Z" fill="url(#paint14_linear_1727_2077)"/>
</g>
</g>
<mask id="mask14_1727_2077" style="mask-type:alpha" maskUnits="userSpaceOnUse" x="54" y="340" width="29" height="230">
<path d="M82.4148 569.526V340.108H54.408V569.526H82.4148Z" fill="url(#paint15_linear_1727_2077)"/>
</mask>
<g mask="url(#mask14_1727_2077)">
<mask id="mask15_1727_2077" style="mask-type:luminance" maskUnits="userSpaceOnUse" x="47" y="292" width="42" height="929">
<path d="M47.8847 1220.46H88.8024V292.318H47.8847V1220.46Z" fill="white"/>
</mask>
<g mask="url(#mask15_1727_2077)">
<path d="M82.4208 756.825V527.407H54.414V756.825H82.4208Z" fill="url(#paint16_linear_1727_2077)"/>
<path d="M54.414 298.86V528.279H82.4209V298.86H54.414Z" fill="url(#paint17_linear_1727_2077)"/>
</g>
</g>
<mask id="mask16_1727_2077" style="mask-type:alpha" maskUnits="userSpaceOnUse" x="26" y="340" width="29" height="288">
<path d="M54.8437 627.099V340.107H26.8369V627.099H54.8437Z" fill="url(#paint18_linear_1727_2077)"/>
</mask>
<g mask="url(#mask16_1727_2077)">
<mask id="mask17_1727_2077" style="mask-type:luminance" maskUnits="userSpaceOnUse" x="21" y="261" width="42" height="1157">
<path d="M21.1171 1417.53H62.0347V261.713H21.1171V1417.53Z" fill="white"/>
</mask>
<g mask="url(#mask17_1727_2077)">
<path d="M55.6532 839.62V555.246H27.6464V839.62H55.6532Z" fill="url(#paint19_linear_1727_2077)"/>
<path d="M27.6464 272.181V556.555H55.6533V272.181H27.6464Z" fill="url(#paint20_linear_1727_2077)"/>
</g>
</g>
<mask id="mask18_1727_2077" style="mask-type:alpha" maskUnits="userSpaceOnUse" x="-1" y="340" width="29" height="343">
<path d="M27.9247 682.055V340.108H-0.0820923V682.055H27.9247Z" fill="url(#paint21_linear_1727_2077)"/>
</mask>
<g mask="url(#mask18_1727_2077)">
<mask id="mask19_1727_2077" style="mask-type:luminance" maskUnits="userSpaceOnUse" x="-7" y="226" width="42" height="1376">
<path d="M-6.66998 1601.5H34.2477V226.734H-6.66998V1601.5Z" fill="white"/>
</mask>
<g mask="url(#mask19_1727_2077)">
<path d="M27.8661 912.807V573.978H-0.140686V912.807H27.8661Z" fill="url(#paint22_linear_1727_2077)"/>
<path d="M-0.140625 236.022V574.85H27.8662V236.022H-0.140625Z" fill="url(#paint23_linear_1727_2077)"/>
</g>
</g>
</g>
</g>
</g>
</g>
<defs>
<linearGradient id="paint0_linear_1727_2077" x1="95.983" y1="166.919" x2="96.087" y2="341.283" gradientUnits="userSpaceOnUse">
<stop stop-color="#FF0000" stop-opacity="0"/>
<stop offset="0.5" stop-color="#FF0000" stop-opacity="0.5"/>
<stop offset="1" stop-color="#FF0000"/>
</linearGradient>
<linearGradient id="paint1_linear_1727_2077" x1="95.9869" y1="-6.46094" x2="96.0909" y2="177.709" gradientUnits="userSpaceOnUse">
<stop stop-color="#90FFF8"/>
<stop offset="0.3" stop-color="#48FEF3"/>
<stop offset="0.6" stop-color="#00D3C6"/>
<stop offset="0.77" stop-color="#48FEF3"/>
<stop offset="0.95" stop-color="#90FFF8"/>
</linearGradient>
<linearGradient id="paint2_linear_1727_2077" x1="95.9869" y1="360.401" x2="95.8829" y2="176.231" gradientUnits="userSpaceOnUse">
<stop stop-color="#90FFF8"/>
<stop offset="0.3" stop-color="#48FEF3"/>
<stop offset="0.6" stop-color="#00D3C6"/>
<stop offset="0.77" stop-color="#48FEF3"/>
<stop offset="0.95" stop-color="#90FFF8"/>
</linearGradient>
<linearGradient id="paint3_linear_1727_2077" x1="68.4114" y1="123.844" x2="68.5154" y2="318.602" gradientUnits="userSpaceOnUse">
<stop stop-color="#FF0000" stop-opacity="0"/>
<stop offset="0.5" stop-color="#FF0000" stop-opacity="0.5"/>
<stop offset="1" stop-color="#FF0000"/>
</linearGradient>
<linearGradient id="paint4_linear_1727_2077" x1="68.4174" y1="-72.6713" x2="68.5214" y2="153.411" gradientUnits="userSpaceOnUse">
<stop stop-color="#90FFF8"/>
<stop offset="0.3" stop-color="#48FEF3"/>
<stop offset="0.6" stop-color="#00D3C6"/>
<stop offset="0.77" stop-color="#48FEF3"/>
<stop offset="0.95" stop-color="#90FFF8"/>
</linearGradient>
<linearGradient id="paint5_linear_1727_2077" x1="68.4174" y1="380.032" x2="68.3134" y2="153.949" gradientUnits="userSpaceOnUse">
<stop stop-color="#90FFF8"/>
<stop offset="0.3" stop-color="#48FEF3"/>
<stop offset="0.6" stop-color="#00D3C6"/>
<stop offset="0.77" stop-color="#48FEF3"/>
<stop offset="0.95" stop-color="#90FFF8"/>
</linearGradient>
<linearGradient id="paint6_linear_1727_2077" x1="40.8403" y1="71.8452" x2="40.9443" y2="289.816" gradientUnits="userSpaceOnUse">
<stop stop-color="#FF0000" stop-opacity="0"/>
<stop offset="0.5" stop-color="#FF0000" stop-opacity="0.5"/>
<stop offset="1" stop-color="#FF0000"/>
</linearGradient>
<linearGradient id="paint7_linear_1727_2077" x1="41.6498" y1="-126.966" x2="41.7519" y2="97.0545" gradientUnits="userSpaceOnUse">
<stop stop-color="#90FFF8"/>
<stop offset="0.3" stop-color="#48FEF3"/>
<stop offset="0.6" stop-color="#00D3C6"/>
<stop offset="0.77" stop-color="#48FEF3"/>
<stop offset="0.95" stop-color="#90FFF8"/>
</linearGradient>
<linearGradient id="paint8_linear_1727_2077" x1="41.6499" y1="378.212" x2="41.5477" y2="154.192" gradientUnits="userSpaceOnUse">
<stop stop-color="#90FFF8"/>
<stop offset="0.3" stop-color="#48FEF3"/>
<stop offset="0.6" stop-color="#00D3C6"/>
<stop offset="0.77" stop-color="#48FEF3"/>
<stop offset="0.95" stop-color="#90FFF8"/>
</linearGradient>
<linearGradient id="paint9_linear_1727_2077" x1="13.9213" y1="23.6218" x2="14.0253" y2="262.338" gradientUnits="userSpaceOnUse">
<stop stop-color="#FF0000" stop-opacity="0"/>
<stop offset="0.5" stop-color="#FF0000" stop-opacity="0.5"/>
<stop offset="1" stop-color="#FF0000"/>
</linearGradient>
<linearGradient id="paint10_linear_1727_2077" x1="13.8628" y1="-172.926" x2="13.9649" y2="51.0953" gradientUnits="userSpaceOnUse">
<stop stop-color="#90FFF8"/>
<stop offset="0.3" stop-color="#48FEF3"/>
<stop offset="0.6" stop-color="#00D3C6"/>
<stop offset="0.77" stop-color="#48FEF3"/>
<stop offset="0.95" stop-color="#90FFF8"/>
</linearGradient>
<linearGradient id="paint11_linear_1727_2077" x1="13.8627" y1="387.144" x2="13.7606" y2="163.123" gradientUnits="userSpaceOnUse">
<stop stop-color="#90FFF8"/>
<stop offset="0.3" stop-color="#48FEF3"/>
<stop offset="0.6" stop-color="#00D3C6"/>
<stop offset="0.77" stop-color="#48FEF3"/>
<stop offset="0.95" stop-color="#90FFF8"/>
</linearGradient>
<linearGradient id="paint12_linear_1727_2077" x1="95.983" y1="514.605" x2="96.087" y2="340.241" gradientUnits="userSpaceOnUse">
<stop stop-color="#FF0000" stop-opacity="0"/>
<stop offset="0.5" stop-color="#FF0000" stop-opacity="0.5"/>
<stop offset="1" stop-color="#FF0000"/>
</linearGradient>
<linearGradient id="paint13_linear_1727_2077" x1="95.9869" y1="687.984" x2="96.0909" y2="503.814" gradientUnits="userSpaceOnUse">
<stop stop-color="#90FFF8"/>
<stop offset="0.3" stop-color="#48FEF3"/>
<stop offset="0.6" stop-color="#00D3C6"/>
<stop offset="0.77" stop-color="#48FEF3"/>
<stop offset="0.95" stop-color="#90FFF8"/>
</linearGradient>
<linearGradient id="paint14_linear_1727_2077" x1="95.9869" y1="321.122" x2="95.8829" y2="505.292" gradientUnits="userSpaceOnUse">
<stop stop-color="#90FFF8"/>
<stop offset="0.3" stop-color="#48FEF3"/>
<stop offset="0.6" stop-color="#00D3C6"/>
<stop offset="0.77" stop-color="#48FEF3"/>
<stop offset="0.95" stop-color="#90FFF8"/>
</linearGradient>
<linearGradient id="paint15_linear_1727_2077" x1="68.4114" y1="557.679" x2="68.5154" y2="362.921" gradientUnits="userSpaceOnUse">
<stop stop-color="#FF0000" stop-opacity="0"/>
<stop offset="0.5" stop-color="#FF0000" stop-opacity="0.5"/>
<stop offset="1" stop-color="#FF0000"/>
</linearGradient>
<linearGradient id="paint16_linear_1727_2077" x1="68.4174" y1="754.195" x2="68.5214" y2="528.112" gradientUnits="userSpaceOnUse">
<stop stop-color="#90FFF8"/>
<stop offset="0.3" stop-color="#48FEF3"/>
<stop offset="0.6" stop-color="#00D3C6"/>
<stop offset="0.77" stop-color="#48FEF3"/>
<stop offset="0.95" stop-color="#90FFF8"/>
</linearGradient>
<linearGradient id="paint17_linear_1727_2077" x1="68.4174" y1="301.491" x2="68.3134" y2="527.574" gradientUnits="userSpaceOnUse">
<stop stop-color="#90FFF8"/>
<stop offset="0.3" stop-color="#48FEF3"/>
<stop offset="0.6" stop-color="#00D3C6"/>
<stop offset="0.77" stop-color="#48FEF3"/>
<stop offset="0.95" stop-color="#90FFF8"/>
</linearGradient>
<linearGradient id="paint18_linear_1727_2077" x1="40.8403" y1="609.678" x2="40.9443" y2="391.707" gradientUnits="userSpaceOnUse">
<stop stop-color="#FF0000" stop-opacity="0"/>
<stop offset="0.5" stop-color="#FF0000" stop-opacity="0.5"/>
<stop offset="1" stop-color="#FF0000"/>
</linearGradient>
<linearGradient id="paint19_linear_1727_2077" x1="41.6498" y1="808.49" x2="41.7519" y2="584.469" gradientUnits="userSpaceOnUse">
<stop stop-color="#90FFF8"/>
<stop offset="0.3" stop-color="#48FEF3"/>
<stop offset="0.6" stop-color="#00D3C6"/>
<stop offset="0.77" stop-color="#48FEF3"/>
<stop offset="0.95" stop-color="#90FFF8"/>
</linearGradient>
<linearGradient id="paint20_linear_1727_2077" x1="41.6499" y1="303.311" x2="41.5477" y2="527.332" gradientUnits="userSpaceOnUse">
<stop stop-color="#90FFF8"/>
<stop offset="0.3" stop-color="#48FEF3"/>
<stop offset="0.6" stop-color="#00D3C6"/>
<stop offset="0.77" stop-color="#48FEF3"/>
<stop offset="0.95" stop-color="#90FFF8"/>
</linearGradient>
<linearGradient id="paint21_linear_1727_2077" x1="13.9213" y1="657.902" x2="14.0253" y2="419.185" gradientUnits="userSpaceOnUse">
<stop stop-color="#FF0000" stop-opacity="0"/>
<stop offset="0.5" stop-color="#FF0000" stop-opacity="0.5"/>
<stop offset="1" stop-color="#FF0000"/>
</linearGradient>
<linearGradient id="paint22_linear_1727_2077" x1="13.8627" y1="854.449" x2="13.9648" y2="630.428" gradientUnits="userSpaceOnUse">
<stop stop-color="#90FFF8"/>
<stop offset="0.3" stop-color="#48FEF3"/>
<stop offset="0.6" stop-color="#00D3C6"/>
<stop offset="0.77" stop-color="#48FEF3"/>
<stop offset="0.95" stop-color="#90FFF8"/>
</linearGradient>
<linearGradient id="paint23_linear_1727_2077" x1="13.8628" y1="294.38" x2="13.7607" y2="518.4" gradientUnits="userSpaceOnUse">
<stop stop-color="#90FFF8"/>
<stop offset="0.3" stop-color="#48FEF3"/>
<stop offset="0.6" stop-color="#00D3C6"/>
<stop offset="0.77" stop-color="#48FEF3"/>
<stop offset="0.95" stop-color="#90FFF8"/>
</linearGradient>
</defs>
</svg>
