<?xml version="1.0" encoding="UTF-8"?>
<svg version="1.1" xmlns="http://www.w3.org/2000/svg" width="220" height="55">
<path d="M0 0 C6.13842918 5.18356242 12.07341663 10.57712263 18 16 C23.37573271 11.46049237 28.57452496 6.74996195 33.7421875 1.9765625 C36 0 36 0 37 0 C37.08160748 1.89510699 37.13946459 3.79124504 37.1875 5.6875 C37.23970703 7.27111328 37.23970703 7.27111328 37.29296875 8.88671875 C36.87976884 13.27765647 35.27145798 15.744808 32.16796875 18.80859375 C31.51441406 19.34613281 30.86085938 19.88367188 30.1875 20.4375 C27.51561629 22.66815521 25.09425203 24.92907729 22.75 27.5 C21.8425 28.325 20.935 29.15 20 30 C16.7223999 29.72162848 14.96377641 28.37249607 12.6171875 26.1640625 C12.00746094 25.59429687 11.39773438 25.02453125 10.76953125 24.4375 C10.14433594 23.839375 9.51914063 23.24125 8.875 22.625 C8.24207031 22.03460938 7.60914063 21.44421875 6.95703125 20.8359375 C0.08452004 14.3573919 0.08452004 14.3573919 -0.1953125 9.86328125 C-0.17210938 8.69152344 -0.14890625 7.51976562 -0.125 6.3125 C-0.09792969 4.54326172 -0.09792969 4.54326172 -0.0703125 2.73828125 C-0.04710937 1.83464844 -0.02390625 0.93101563 0 0 Z " fill="#00D2C5" transform="translate(0,25)"/>
<path d="M0 0 C10.77493398 -0.56489945 10.77493398 -0.56489945 15 3 C15.99 4.485 15.99 4.485 17 6 C17 4.02 17 2.04 17 0 C22.28 0 27.56 0 33 0 C33 1.65 33 3.3 33 5 C30.36 5.33 27.72 5.66 25 6 C25.495 14.415 25.495 14.415 26 23 C23.36 23 20.72 23 18 23 C17.67 20.36 17.34 17.72 17 15 C16.443125 15.78375 15.88625 16.5675 15.3125 17.375 C12.84814537 20.17237553 11.5891393 21.14544302 8 22 C2.43075548 21.88150544 -0.12247605 19.69717399 -4 16 C-5.75881086 12.48237828 -4.12246092 8.62541974 -3 5 C-1.375 2.5 -1.375 2.5 0 1 C0 0.67 0 0.34 0 0 Z M2 7 C0.91776634 9.91004903 0.91776634 9.91004903 1 13 C1.93597315 15.01951062 1.93597315 15.01951062 4 16 C7.04211431 16.4167552 7.04211431 16.4167552 10 16 C12.28930236 14.11861241 12.28930236 14.11861241 12.375 11.0625 C12.30990066 7.92494943 12.30990066 7.92494943 10.125 6.125 C6.85522597 4.39394316 4.97189131 4.89091585 2 7 Z " fill="#CACAC9" transform="translate(172,13)"/>
<path d="M0 0 C2.97 0 5.94 0 9 0 C9.020625 1.340625 9.04125 2.68125 9.0625 4.0625 C9.72105355 9.90716274 12.6135716 12.38911883 17 16 C18.48422031 17.2230596 19.96348507 18.45216008 21.4375 19.6875 C22.11683594 20.22761719 22.79617187 20.76773437 23.49609375 21.32421875 C25 23 25 23 25 27 C23.21722256 29.01623639 21.16873843 30.37344618 19 32 C15.45815946 30.501529 13.27223438 28.45084115 10.625 25.6875 C8.07339421 23.03220705 5.77049487 20.8402249 2.734375 18.7265625 C-0.39925024 15.60189047 -0.39925024 15.60189047 -0.5859375 12.01171875 C-0.54641479 10.56913989 -0.47534933 9.12712698 -0.375 7.6875 C-0.34792969 6.94693359 -0.32085938 6.20636719 -0.29296875 5.44335938 C-0.22268284 3.62764002 -0.11507089 1.81343199 0 0 Z " fill="#00D2C5" transform="translate(0,4)"/>
<path d="M0 0 C2.97 0 5.94 0 9 0 C9 2.31 9 4.62 9 7 C10.65 7 12.3 7 14 7 C14 4.69 14 2.38 14 0 C16.97 0 19.94 0 23 0 C24.0735426 13.24035874 24.0735426 13.24035874 21.44140625 17.5546875 C19.70837043 19.23541842 18.01710222 20.67756309 16 22 C9.81964399 18.42189915 4.35850012 13.6592928 0 8 C-0.82370276 4.8759566 -0.59854138 3.23212346 0 0 Z " fill="#00D2C5" transform="translate(14,4)"/>
<path d="M0 0 C5.34210068 -0.58042945 9.67757356 -0.88149431 14.0625 2.5625 C16.42392208 4.94070944 17.07036033 6.20737783 18.1875 9.5 C17.95120226 13.91089119 16.91815655 15.70772082 14 19 C10.75888798 21.18422766 8.84869578 22 4.9375 22 C1.2723593 20.75229253 -0.47504139 18.88566698 -3 16 C-3.33 15.67 -3.66 15.34 -4 15 C-4.52326575 8.82546414 -3.9282528 6.0330739 0 1 C0 0.67 0 0.34 0 0 Z M2 7 C2 7.33 2 7.66 2 8 C4.97 8 7.94 8 11 8 C10.01 7.01 9.02 6.02 8 5 C5.53721199 5 4.14775881 5.85452863 2 7 Z M2 13 C2.99 14.485 2.99 14.485 4 16 C7 16.5 7 16.5 10 16 C10.66 15.01 11.32 14.02 12 13 C8.7 13 5.4 13 2 13 Z " fill="#DDDEDD" transform="translate(136,13)"/>
<path d="M0 0 C1.08861328 0.11794922 1.08861328 0.11794922 2.19921875 0.23828125 C5.33687596 0.9052509 7.53264434 1.67117198 9.5234375 4.265625 C10.72111535 7.94166594 10.78448645 11.59303468 10.9375 15.4375 C10.97617188 16.23027344 11.01484375 17.02304687 11.0546875 17.83984375 C11.148608 19.78869416 11.23162822 21.73806451 11.3125 23.6875 C8.6725 23.6875 6.0325 23.6875 3.3125 23.6875 C3.6425 18.7375 3.9725 13.7875 4.3125 8.6875 C3.3225 8.3575 2.3325 8.0275 1.3125 7.6875 C1.3125 7.3575 1.3125 7.0275 1.3125 6.6875 C-1.6575 6.1925 -1.6575 6.1925 -4.6875 5.6875 C-4.3575 11.6275 -4.0275 17.5675 -3.6875 23.6875 C-6.3275 23.6875 -8.9675 23.6875 -11.6875 23.6875 C-11.6875 16.0975 -11.6875 8.5075 -11.6875 0.6875 C-3.73233431 -0.44895224 -3.73233431 -0.44895224 0 0 Z " fill="#C8C8C8" transform="translate(120.6875,12.3125)"/>
<path d="M0 0 C2.875 1.5 2.875 1.5 5 4 C6.17708766 9.12873909 6.5038527 13.88690081 5 19 C1.61759552 21.57707008 -0.3799705 22.01069016 -4.625 21.9375 C-8.29010779 20.9194145 -9.76351518 20.04161935 -12 17 C-12 16.01 -12 15.02 -12 14 C-10.02 14 -8.04 14 -6 14 C-6 14.66 -6 15.32 -6 16 C-4.02 16 -2.04 16 0 16 C0 15.34 0 14.68 0 14 C-1.2375 13.7525 -2.475 13.505 -3.75 13.25 C-7.49154322 12.29966131 -9.80274211 11.34365331 -12 8 C-12 4.86045016 -11.46673327 3.52058711 -9.375 1.1875 C-6.01623433 -0.49188284 -3.71022229 -0.45564133 0 0 Z M-5 5 C-5.33 5.66 -5.66 6.32 -6 7 C-3.03 7.495 -3.03 7.495 0 8 C-0.66 7.01 -1.32 6.02 -2 5 C-2.99 5 -3.98 5 -5 5 Z M1 8 C2.485 8.99 2.485 8.99 4 10 C4.33 9.34 4.66 8.68 5 8 C3.68 8 2.36 8 1 8 Z " fill="#DADBDA" transform="translate(65,13)"/>
<path d="M0 0 C3.61248009 2.95566553 4.44713253 4.54637045 5.25 9.0625 C4.52774016 13.66690645 2.35950227 16.36081507 -1.25 19.25 C-5.174626 20.48935558 -7.13887971 20.71512012 -10.9375 19.125 C-14.52969571 16.21240889 -16.95416301 13.98804231 -17.75 9.3125 C-17.01308528 4.79889737 -15.0849391 1.59562201 -11.375 -1.125 C-6.88356315 -2.44601084 -4.14855304 -2.23383625 0 0 Z M-11.25 5.25 C-12.3453531 7.04649965 -12.3453531 7.04649965 -12.25 9.25 C-11.32976712 12.08928533 -11.32976712 12.08928533 -9.25 14.25 C-6.12364791 14.66746608 -6.12364791 14.66746608 -3.25 14.25 C-1.44588033 11.49075815 -1.2372755 10.36027897 -1.625 7 C-1.83125 6.0925 -2.0375 5.185 -2.25 4.25 C-5.94270227 3.22424937 -8.09213022 2.88159766 -11.25 5.25 Z " fill="#DEDEDE" transform="translate(104.25,14.75)"/>
<path d="M0 0 C2.31 0.33 4.62 0.66 7 1 C7 2.98 7 4.96 7 7 C10.465 6.505 10.465 6.505 14 6 C14 8.31 14 10.62 14 13 C13.01 13.495 13.01 13.495 12 14 C12 13.34 12 12.68 12 12 C10.35 12.33 8.7 12.66 7 13 C7 16.3 7 19.6 7 23 C8.98 22.67 10.96 22.34 13 22 C14.35439668 24.70879335 14.06501451 27.00933268 14 30 C5.1017615 29.81320492 5.1017615 29.81320492 1.375 27.0625 C-0.57382616 22.72193263 -0.5065228 18.69156368 0 14 C0.33 13.34 0.66 12.68 1 12 C0.01 12 -0.98 12 -2 12 C-2 10.35 -2 8.7 -2 7 C-1.34 6.67 -0.68 6.34 0 6 C0 4.02 0 2.04 0 0 Z " fill="#CCCCCC" transform="translate(74,6)"/>
<path d="M0 0 C0.90492188 0.02320313 1.80984375 0.04640625 2.7421875 0.0703125 C4.10730469 0.09738281 4.10730469 0.09738281 5.5 0.125 C6.19867188 0.14820313 6.89734375 0.17140625 7.6171875 0.1953125 C7.9471875 2.1753125 8.2771875 4.1553125 8.6171875 6.1953125 C6.3071875 5.8653125 3.9971875 5.5353125 1.6171875 5.1953125 C1.6171875 6.1853125 1.6171875 7.1753125 1.6171875 8.1953125 C5.0821875 7.7003125 5.0821875 7.7003125 8.6171875 7.1953125 C8.2871875 9.1753125 7.9571875 11.1553125 7.6171875 13.1953125 C5.6371875 13.5253125 3.6571875 13.8553125 1.6171875 14.1953125 C1.9471875 19.8053125 2.2771875 25.4153125 2.6171875 31.1953125 C-0.0228125 31.1953125 -2.6628125 31.1953125 -5.3828125 31.1953125 C-4.8878125 22.2853125 -4.8878125 22.2853125 -4.3828125 13.1953125 C-5.3728125 13.1953125 -6.3628125 13.1953125 -7.3828125 13.1953125 C-7.3828125 11.5453125 -7.3828125 9.8953125 -7.3828125 8.1953125 C-6.3928125 8.1953125 -5.4028125 8.1953125 -4.3828125 8.1953125 C-4.4446875 6.7721875 -4.4446875 6.7721875 -4.5078125 5.3203125 C-4.35731854 1.55796359 -3.87821955 0.31788685 0 0 Z " fill="#D3D4D3" transform="translate(161.3828125,4.8046875)"/>
<path d="M0 0 C2.97 0 5.94 0 9 0 C8.67 2.31 8.34 4.62 8 7 C9.65 7 11.3 7 13 7 C13 8.65 13 10.3 13 12 C11.35 12.33 9.7 12.66 8 13 C8 16.3 8 19.6 8 23 C9.65 23 11.3 23 13 23 C13 24.98 13 26.96 13 29 C5.68817204 29.4874552 5.68817204 29.4874552 2.75 27.40625 C0.41862016 24.20060272 0.59320186 22.16995359 0.75 18.25 C0.78609375 17.07953125 0.8221875 15.9090625 0.859375 14.703125 C0.90578125 13.81109375 0.9521875 12.9190625 1 12 C0.34 12 -0.32 12 -1 12 C-1 10.35 -1 8.7 -1 7 C-0.34 7 0.32 7 1 7 C0.67 4.69 0.34 2.38 0 0 Z " fill="#CFCFCF" transform="translate(207,6)"/>
<path d="M0 0 C0.99 0 1.98 0 3 0 C3.66 1.65 4.32 3.3 5 5 C5.33 3.35 5.66 1.7 6 0 C9.458176 -0.0868329 12.91607344 -0.14033282 16.375 -0.1875 C17.35984375 -0.21263672 18.3446875 -0.23777344 19.359375 -0.26367188 C20.77089844 -0.27817383 20.77089844 -0.27817383 22.2109375 -0.29296875 C23.08024902 -0.3086792 23.94956055 -0.32438965 24.84521484 -0.34057617 C25.55629395 -0.22818604 26.26737305 -0.1157959 27 0 C27.66 0.99 28.32 1.98 29 3 C29.33 2.01 29.66 1.02 30 0 C30.66 0 31.32 0 32 0 C32 3.3 32 6.6 32 10 C28 8 28 8 27 6 C26.67 7.32 26.34 8.64 26 10 C25.34 10 24.68 10 24 10 C24 7.36 24 4.72 24 2 C22.68 2 21.36 2 20 2 C20 4.64 20 7.28 20 10 C19.34 10 18.68 10 18 10 C18 7.36 18 4.72 18 2 C17.01 2 16.02 2 15 2 C15 4.64 15 7.28 15 10 C14.34 10 13.68 10 13 10 C12.67 8.68 12.34 7.36 12 6 C11.01 6 10.02 6 9 6 C9 7.32 9 8.64 9 10 C7.35 10 5.7 10 4 10 C3.67 9.01 3.34 8.02 3 7 C-0.11785113 7.64644661 -0.11785113 7.64644661 -1 10 C-1.66 10 -2.32 10 -3 10 C-2.39009109 6.44219804 -1.4216319 3.3171411 0 0 Z M9 2 C9 2.66 9 3.32 9 4 C9.99 4 10.98 4 12 4 C12 3.34 12 2.68 12 2 C11.01 2 10.02 2 9 2 Z " fill="#00D1C5" transform="translate(112,44)"/>
<path d="M0 0 C0 1.65 0 3.3 0 5 C-2.64 5.33 -5.28 5.66 -8 6 C-8 10.95 -8 15.9 -8 21 C-9.98 21 -11.96 21 -14 21 C-14 14.4 -14 7.8 -14 1 C-12.02 1 -10.04 1 -8 1 C-5.29120665 -0.35439668 -2.99066732 -0.06501451 0 0 Z " fill="#F4F4F4" transform="translate(205,13)"/>
<path d="M0 0 C2.64 0 5.28 0 8 0 C8 0.66 8 1.32 8 2 C8.66 2 9.32 2 10 2 C10 1.34 10 0.68 10 0 C11.98 0 13.96 0 16 0 C16.33 0.99 16.66 1.98 17 3 C15.68 3 14.36 3 13 3 C14.65 3.99 16.3 4.98 18 6 C17.34 7.32 16.68 8.64 16 10 C12.7 10 9.4 10 6 10 C6 8.68 6 7.36 6 6 C4.68 6 3.36 6 2 6 C2 7.32 2 8.64 2 10 C1.34 10 0.68 10 0 10 C0 6.7 0 3.4 0 0 Z M2 2 C2 2.66 2 3.32 2 4 C3.32 4 4.64 4 6 4 C6 3.34 6 2.68 6 2 C4.68 2 3.36 2 2 2 Z M8 3 C8 4.98 8 6.96 8 9 C8.33 8.01 8.66 7.02 9 6 C10.485 6.99 10.485 6.99 12 8 C12.99 8 13.98 8 15 8 C15 7.34 15 6.68 15 6 C12.69 5.01 10.38 4.02 8 3 Z " fill="#00D1C4" transform="translate(154,44)"/>
<path d="M0 0 C1.65 0 3.3 0 5 0 C5.33 0.99 5.66 1.98 6 3 C5.34 3 4.68 3 4 3 C4.33 3.66 4.66 4.32 5 5 C5.0716735 7.55157655 5.09308442 10.07472971 5.0625 12.625 C5.05798828 13.33140625 5.05347656 14.0378125 5.04882812 14.765625 C5.03703875 16.51045275 5.01910324 18.255237 5 20 C3.35 20 1.7 20 0 20 C0 13.4 0 6.8 0 0 Z " fill="#F5F5F5" transform="translate(110,14)"/>
<path d="M0 0 C2.31 0 4.62 0 7 0 C7 0.66 7 1.32 7 2 C5.35 2 3.7 2 2 2 C2 2.66 2 3.32 2 4 C3.65 4 5.3 4 7 4 C7 4.66 7 5.32 7 6 C5.35 6 3.7 6 2 6 C2 6.66 2 7.32 2 8 C3.65 8 5.3 8 7 8 C7 8.66 7 9.32 7 10 C4.69 10 2.38 10 0 10 C0 6.7 0 3.4 0 0 Z " fill="#00D2C5" transform="translate(146,44)"/>
<path d="M0 0 C2.31 0 4.62 0 7 0 C7.38218767 1.65614657 7.71395102 3.32457024 8 5 C7 6 7 6 4.4375 6.0625 C3.2309375 6.0315625 3.2309375 6.0315625 2 6 C2 7.32 2 8.64 2 10 C1.34 10 0.68 10 0 10 C0 6.7 0 3.4 0 0 Z M2 2 C2 2.66 2 3.32 2 4 C3.32 4 4.64 4 6 4 C6 3.34 6 2.68 6 2 C4.68 2 3.36 2 2 2 Z " fill="#00D2C5" transform="translate(101,44)"/>
<path d="M0 0 C0 1.65 0 3.3 0 5 C-3.3 5.33 -6.6 5.66 -10 6 C-7.83322503 -0.036016 -6.28508493 -0.13663228 0 0 Z " fill="#D7D7D7" transform="translate(205,13)"/>
<path d="M0 0 C2 2 2 2 2.125 5.125 C2.08375 6.07375 2.0425 7.0225 2 8 C-1.3 7.67 -4.6 7.34 -8 7 C-8 6.67 -8 6.34 -8 6 C-5.36 6 -2.72 6 0 6 C0 4.68 0 3.36 0 2 C-1.65 2 -3.3 2 -5 2 C-5 1.67 -5 1.34 -5 1 C-2.625 0.375 -2.625 0.375 0 0 Z " fill="#4E4E4E" transform="translate(86,28)"/>
<path d="M0 0 C0 0.99 0 1.98 0 3 C-0.99 3 -1.98 3 -3 3 C-2.01 2.01 -1.02 1.02 0 0 Z " fill="#000000" transform="translate(188,30)"/>
<path d="M0 0 C0 0.99 0 1.98 0 3 C-0.99 3 -1.98 3 -3 3 C-2.01 2.01 -1.02 1.02 0 0 Z " fill="#000000" transform="translate(152,30)"/>
<path d="M0 0 C0.66 0.33 1.32 0.66 2 1 C0.02 1.99 0.02 1.99 -2 3 C-1.34 2.01 -0.68 1.02 0 0 Z " fill="#000000" transform="translate(105,32)"/>
<path d="M0 0 C0 0.99 0 1.98 0 3 C-0.66 2.67 -1.32 2.34 -2 2 C-1.34 1.34 -0.68 0.68 0 0 Z " fill="#000000" transform="translate(182,25)"/>
<path d="M0 0 C0.99 0.33 1.98 0.66 3 1 C2.01 1 1.02 1 0 1 C0 0.67 0 0.34 0 0 Z " fill="#000000" transform="translate(54,33)"/>
<path d="M0 0 C0 3 0 3 0 3 Z " fill="#000000" transform="translate(108,29)"/>
<path d="M0 0 C0.99 0.495 0.99 0.495 2 1 C1.01 1.495 1.01 1.495 0 2 C0 1.34 0 0.68 0 0 Z " fill="#000000" transform="translate(175,20)"/>
<path d="M0 0 C0.99 0.495 0.99 0.495 2 1 C1.01 1.495 1.01 1.495 0 2 C0 1.34 0 0.68 0 0 Z " fill="#000000" transform="translate(133,15)"/>
<path d="M0 0 C0.99 0.495 0.99 0.495 2 1 C1.01 1.495 1.01 1.495 0 2 C0 1.34 0 0.68 0 0 Z " fill="#000000" transform="translate(170,14)"/>
<path d="M0 0 C0.66 0 1.32 0 2 0 C1.67 0.66 1.34 1.32 1 2 C0.67 1.34 0.34 0.68 0 0 Z " fill="#000000" transform="translate(68,14)"/>
<path d="M0 0 C0.99 0.495 0.99 0.495 2 1 C1.01 1.495 1.01 1.495 0 2 C0 1.34 0 0.68 0 0 Z " fill="#000000" transform="translate(53,14)"/>
<path d="M0 0 C0.99 0.495 0.99 0.495 2 1 C1.01 1.495 1.01 1.495 0 2 C0 1.34 0 0.68 0 0 Z " fill="#000000" transform="translate(156,5)"/>
<path d="M0 0 C2 1 2 1 2 1 Z " fill="#000000" transform="translate(183,34)"/>
<path d="M0 0 C2 1 2 1 2 1 Z " fill="#000000" transform="translate(172,34)"/>
<path d="M0 0 C2 1 2 1 2 1 Z " fill="#000000" transform="translate(147,34)"/>
<path d="M0 0 C2 1 2 1 2 1 Z " fill="#000000" transform="translate(136,34)"/>
<path d="M0 0 C2 1 2 1 2 1 Z " fill="#000000" transform="translate(75,34)"/>
<path d="M0 0 C2 1 2 1 2 1 Z " fill="#000000" transform="translate(67,34)"/>
<path d="M0 0 C2 1 2 1 2 1 Z " fill="#000000" transform="translate(90,33)"/>
<path d="" fill="#000000" transform="translate(0,0)"/>
<path d="" fill="#000000" transform="translate(0,0)"/>
<path d="" fill="#000000" transform="translate(0,0)"/>
<path d="" fill="#000000" transform="translate(0,0)"/>
<path d="" fill="#000000" transform="translate(0,0)"/>
<path d="M0 0 C2 1 2 1 2 1 Z " fill="#000000" transform="translate(144,27)"/>
<path d="M0 0 C2 1 2 1 2 1 Z " fill="#000000" transform="translate(55,25)"/>
<path d="" fill="#000000" transform="translate(0,0)"/>
<path d="M0 0 C2 1 2 1 2 1 Z " fill="#000000" transform="translate(180,20)"/>
<path d="" fill="#000000" transform="translate(0,0)"/>
<path d="" fill="#000000" transform="translate(0,0)"/>
<path d="" fill="#000000" transform="translate(0,0)"/>
<path d="" fill="#000000" transform="translate(0,0)"/>
<path d="M0 0 C2 1 2 1 2 1 Z " fill="#000000" transform="translate(131,17)"/>
<path d="" fill="#000000" transform="translate(0,0)"/>
<path d="M0 0 C2 1 2 1 2 1 Z " fill="#000000" transform="translate(185,14)"/>
<path d="M0 0 C2 1 2 1 2 1 Z " fill="#000000" transform="translate(149,14)"/>
<path d="M0 0 C2 1 2 1 2 1 Z " fill="#000000" transform="translate(127,13)"/>
<path d="M0 0 C2 1 2 1 2 1 Z " fill="#000000" transform="translate(103,13)"/>
<path d="M0 0 C2 1 2 1 2 1 Z " fill="#000000" transform="translate(91,13)"/>
<path d="" fill="#000000" transform="translate(0,0)"/>
<path d="" fill="#000000" transform="translate(0,0)"/>
<path d="" fill="#000000" transform="translate(0,0)"/>
<path d="" fill="#000000" transform="translate(0,0)"/>
<path d="" fill="#000000" transform="translate(0,0)"/>
<path d="" fill="#000000" transform="translate(0,0)"/>
<path d="" fill="#000000" transform="translate(0,0)"/>
<path d="" fill="#000000" transform="translate(0,0)"/>
<path d="" fill="#000000" transform="translate(0,0)"/>
<path d="" fill="#000000" transform="translate(0,0)"/>
<path d="" fill="#000000" transform="translate(0,0)"/>
<path d="" fill="#000000" transform="translate(0,0)"/>
<path d="" fill="#000000" transform="translate(0,0)"/>
<path d="" fill="#000000" transform="translate(0,0)"/>
<path d="" fill="#000000" transform="translate(0,0)"/>
<path d="" fill="#000000" transform="translate(0,0)"/>
<path d="" fill="#000000" transform="translate(0,0)"/>
<path d="" fill="#000000" transform="translate(0,0)"/>
<path d="" fill="#000000" transform="translate(0,0)"/>
<path d="" fill="#000000" transform="translate(0,0)"/>
<path d="" fill="#000000" transform="translate(0,0)"/>
<path d="" fill="#000000" transform="translate(0,0)"/>
<path d="" fill="#000000" transform="translate(0,0)"/>
<path d="" fill="#000000" transform="translate(0,0)"/>
<path d="" fill="#000000" transform="translate(0,0)"/>
<path d="" fill="#000000" transform="translate(0,0)"/>
<path d="" fill="#000000" transform="translate(0,0)"/>
<path d="" fill="#000000" transform="translate(0,0)"/>
<path d="" fill="#000000" transform="translate(0,0)"/>
<path d="" fill="#000000" transform="translate(0,0)"/>
<path d="" fill="#000000" transform="translate(0,0)"/>
<path d="" fill="#000000" transform="translate(0,0)"/>
<path d="" fill="#000000" transform="translate(0,0)"/>
<path d="" fill="#000000" transform="translate(0,0)"/>
<path d="" fill="#000000" transform="translate(0,0)"/>
<path d="" fill="#000000" transform="translate(0,0)"/>
<path d="" fill="#000000" transform="translate(0,0)"/>
<path d="" fill="#000000" transform="translate(0,0)"/>
<path d="" fill="#000000" transform="translate(0,0)"/>
<path d="" fill="#000000" transform="translate(0,0)"/>
<path d="" fill="#000000" transform="translate(0,0)"/>
<path d="" fill="#000000" transform="translate(0,0)"/>
<path d="" fill="#000000" transform="translate(0,0)"/>
<path d="" fill="#000000" transform="translate(0,0)"/>
<path d="" fill="#000000" transform="translate(0,0)"/>
<path d="" fill="#000000" transform="translate(0,0)"/>
<path d="" fill="#000000" transform="translate(0,0)"/>
<path d="" fill="#000000" transform="translate(0,0)"/>
<path d="" fill="#000000" transform="translate(0,0)"/>
<path d="" fill="#000000" transform="translate(0,0)"/>
<path d="" fill="#000000" transform="translate(0,0)"/>
<path d="" fill="#000000" transform="translate(0,0)"/>
<path d="" fill="#000000" transform="translate(0,0)"/>
<path d="" fill="#000000" transform="translate(0,0)"/>
<path d="" fill="#000000" transform="translate(0,0)"/>
<path d="" fill="#000000" transform="translate(0,0)"/>
<path d="" fill="#000000" transform="translate(0,0)"/>
<path d="" fill="#000000" transform="translate(0,0)"/>
<path d="" fill="#000000" transform="translate(0,0)"/>
<path d="" fill="#000000" transform="translate(0,0)"/>
<path d="" fill="#000000" transform="translate(0,0)"/>
<path d="" fill="#000000" transform="translate(0,0)"/>
<path d="" fill="#000000" transform="translate(0,0)"/>
<path d="" fill="#000000" transform="translate(0,0)"/>
<path d="" fill="#000000" transform="translate(0,0)"/>
<path d="" fill="#000000" transform="translate(0,0)"/>
<path d="" fill="#000000" transform="translate(0,0)"/>
<path d="" fill="#000000" transform="translate(0,0)"/>
<path d="" fill="#000000" transform="translate(0,0)"/>
<path d="" fill="#000000" transform="translate(0,0)"/>
<path d="" fill="#000000" transform="translate(0,0)"/>
</svg>
