<svg width="111" height="682" viewBox="0 0 111 682" fill="none" xmlns="http://www.w3.org/2000/svg">
<g opacity="0.8">
<mask id="mask0_1727_2281" style="mask-type:luminance" maskUnits="userSpaceOnUse" x="0" y="0" width="111" height="682">
<path d="M0 0.0136719H111V681.509H0V0.0136719Z" fill="white"/>
</mask>
<g mask="url(#mask0_1727_2281)">
<mask id="mask1_1727_2281" style="mask-type:luminance" maskUnits="userSpaceOnUse" x="-724" y="-95" width="837" height="874">
<path d="M112.088 -94.0869H-723.677V778.227H112.088V-94.0869Z" fill="white"/>
</mask>
<g mask="url(#mask1_1727_2281)">
<mask id="mask2_1727_2281" style="mask-type:luminance" maskUnits="userSpaceOnUse" x="-467" y="-39" width="836" height="546">
<path d="M368.911 -38.2588H-466.854V506.937H368.911V-38.2588Z" fill="white"/>
</mask>
<g mask="url(#mask2_1727_2281)">
<mask id="mask3_1727_2281" style="mask-type:alpha" maskUnits="userSpaceOnUse" x="1" y="157" width="29" height="185">
<path d="M1.01357 157.357V341.416H29.0204V157.357H1.01357Z" fill="url(#paint0_linear_1727_2281)"/>
</mask>
<g mask="url(#mask3_1727_2281)">
<mask id="mask4_1727_2281" style="mask-type:luminance" maskUnits="userSpaceOnUse" x="-6" y="-378" width="42" height="748">
<path d="M35.5458 -377.386H-5.37187V369.315H35.5458V-377.386Z" fill="white"/>
</mask>
<g mask="url(#mask4_1727_2281)">
<path d="M1.00966 -6.21582V177.842H29.0165V-6.21582H1.00966Z" fill="url(#paint1_linear_1727_2281)"/>
<path d="M29.0165 360.156V176.098H1.00964V360.156H29.0165Z" fill="url(#paint2_linear_1727_2281)"/>
</g>
</g>
<mask id="mask5_1727_2281" style="mask-type:alpha" maskUnits="userSpaceOnUse" x="28" y="111" width="29" height="231">
<path d="M28.5851 111.997V341.416H56.5919V111.997H28.5851Z" fill="url(#paint3_linear_1727_2281)"/>
</mask>
<g mask="url(#mask5_1727_2281)">
<mask id="mask6_1727_2281" style="mask-type:luminance" maskUnits="userSpaceOnUse" x="22" y="-539" width="42" height="929">
<path d="M63.1152 -538.937H22.1976V389.205H63.1152V-538.937Z" fill="white"/>
</mask>
<g mask="url(#mask6_1727_2281)">
<path d="M28.5791 -75.3018V154.117H56.5859V-75.3018H28.5791Z" fill="url(#paint4_linear_1727_2281)"/>
<path d="M56.5859 382.662V153.244H28.5791V382.662H56.5859Z" fill="url(#paint5_linear_1727_2281)"/>
</g>
</g>
<mask id="mask7_1727_2281" style="mask-type:alpha" maskUnits="userSpaceOnUse" x="56" y="54" width="29" height="288">
<path d="M56.1563 54.4248V341.416H84.1631V54.4248H56.1563Z" fill="url(#paint6_linear_1727_2281)"/>
</mask>
<g mask="url(#mask7_1727_2281)">
<mask id="mask8_1727_2281" style="mask-type:luminance" maskUnits="userSpaceOnUse" x="48" y="-737" width="42" height="1157">
<path d="M89.8828 -736.005H48.9652V419.811H89.8828V-736.005Z" fill="white"/>
</mask>
<g mask="url(#mask8_1727_2281)">
<path d="M55.3467 -158.097V126.277H83.3535V-158.097H55.3467Z" fill="url(#paint7_linear_1727_2281)"/>
<path d="M83.3535 409.343V124.969H55.3467V409.343H83.3535Z" fill="url(#paint8_linear_1727_2281)"/>
</g>
</g>
<mask id="mask9_1727_2281" style="mask-type:alpha" maskUnits="userSpaceOnUse" x="83" y="-1" width="29" height="343">
<path d="M83.0752 -0.53125V341.416H111.082V-0.53125H83.0752Z" fill="url(#paint9_linear_1727_2281)"/>
</mask>
<g mask="url(#mask9_1727_2281)">
<mask id="mask10_1727_2281" style="mask-type:luminance" maskUnits="userSpaceOnUse" x="76" y="-920" width="42" height="1375">
<path d="M117.67 -919.977H76.7523V454.79H117.67V-919.977Z" fill="white"/>
</mask>
<g mask="url(#mask10_1727_2281)">
<path d="M83.1338 -231.283V107.545H111.141V-231.283H83.1338Z" fill="url(#paint10_linear_1727_2281)"/>
<path d="M111.141 445.502V106.674H83.1338V445.502H111.141Z" fill="url(#paint11_linear_1727_2281)"/>
</g>
</g>
</g>
<mask id="mask11_1727_2281" style="mask-type:alpha" maskUnits="userSpaceOnUse" x="1" y="340" width="29" height="185">
<path d="M1.01357 524.166V340.108H29.0204V524.166H1.01357Z" fill="url(#paint12_linear_1727_2281)"/>
</mask>
<g mask="url(#mask11_1727_2281)">
<mask id="mask12_1727_2281" style="mask-type:luminance" maskUnits="userSpaceOnUse" x="-6" y="312" width="42" height="747">
<path d="M35.5458 1058.91H-5.37187V312.209H35.5458V1058.91Z" fill="white"/>
</mask>
<g mask="url(#mask12_1727_2281)">
<path d="M1.00966 687.739V503.681H29.0165V687.739H1.00966Z" fill="url(#paint13_linear_1727_2281)"/>
<path d="M29.0165 321.367V505.425H1.00964V321.367H29.0165Z" fill="url(#paint14_linear_1727_2281)"/>
</g>
</g>
<mask id="mask13_1727_2281" style="mask-type:alpha" maskUnits="userSpaceOnUse" x="28" y="340" width="29" height="230">
<path d="M28.5851 569.526V340.108H56.5919V569.526H28.5851Z" fill="url(#paint15_linear_1727_2281)"/>
</mask>
<g mask="url(#mask13_1727_2281)">
<mask id="mask14_1727_2281" style="mask-type:luminance" maskUnits="userSpaceOnUse" x="22" y="292" width="42" height="929">
<path d="M63.1152 1220.46H22.1976V292.318H63.1152V1220.46Z" fill="white"/>
</mask>
<g mask="url(#mask14_1727_2281)">
<path d="M28.5791 756.825V527.407H56.5859V756.825H28.5791Z" fill="url(#paint16_linear_1727_2281)"/>
<path d="M56.5859 298.86V528.279H28.5791V298.86H56.5859Z" fill="url(#paint17_linear_1727_2281)"/>
</g>
</g>
<mask id="mask15_1727_2281" style="mask-type:alpha" maskUnits="userSpaceOnUse" x="56" y="340" width="29" height="288">
<path d="M56.1563 627.099V340.107H84.1631V627.099H56.1563Z" fill="url(#paint18_linear_1727_2281)"/>
</mask>
<g mask="url(#mask15_1727_2281)">
<mask id="mask16_1727_2281" style="mask-type:luminance" maskUnits="userSpaceOnUse" x="48" y="261" width="42" height="1157">
<path d="M89.8828 1417.53H48.9652V261.713H89.8828V1417.53Z" fill="white"/>
</mask>
<g mask="url(#mask16_1727_2281)">
<path d="M55.3467 839.62V555.246H83.3535V839.62H55.3467Z" fill="url(#paint19_linear_1727_2281)"/>
<path d="M83.3535 272.181V556.555H55.3467V272.181H83.3535Z" fill="url(#paint20_linear_1727_2281)"/>
</g>
</g>
<mask id="mask17_1727_2281" style="mask-type:alpha" maskUnits="userSpaceOnUse" x="83" y="340" width="29" height="343">
<path d="M83.0752 682.055V340.108H111.082V682.055H83.0752Z" fill="url(#paint21_linear_1727_2281)"/>
</mask>
<g mask="url(#mask17_1727_2281)">
<mask id="mask18_1727_2281" style="mask-type:luminance" maskUnits="userSpaceOnUse" x="76" y="226" width="42" height="1376">
<path d="M117.67 1601.5H76.7523V226.734H117.67V1601.5Z" fill="white"/>
</mask>
<g mask="url(#mask18_1727_2281)">
<path d="M83.1338 912.807V573.978H111.141V912.807H83.1338Z" fill="url(#paint22_linear_1727_2281)"/>
<path d="M111.141 236.022V574.85H83.1338V236.022H111.141Z" fill="url(#paint23_linear_1727_2281)"/>
</g>
</g>
</g>
</g>
</g>
<defs>
<linearGradient id="paint0_linear_1727_2281" x1="15.017" y1="166.919" x2="14.913" y2="341.283" gradientUnits="userSpaceOnUse">
<stop stop-color="#FF0000" stop-opacity="0"/>
<stop offset="0.5" stop-color="#FF0000" stop-opacity="0.5"/>
<stop offset="1" stop-color="#FF0000"/>
</linearGradient>
<linearGradient id="paint1_linear_1727_2281" x1="15.0131" y1="-6.46094" x2="14.9091" y2="177.709" gradientUnits="userSpaceOnUse">
<stop stop-color="#90FFF8"/>
<stop offset="0.3" stop-color="#48FEF3"/>
<stop offset="0.6" stop-color="#00D3C6"/>
<stop offset="0.77" stop-color="#48FEF3"/>
<stop offset="0.95" stop-color="#90FFF8"/>
</linearGradient>
<linearGradient id="paint2_linear_1727_2281" x1="15.0131" y1="360.401" x2="15.1171" y2="176.231" gradientUnits="userSpaceOnUse">
<stop stop-color="#90FFF8"/>
<stop offset="0.3" stop-color="#48FEF3"/>
<stop offset="0.6" stop-color="#00D3C6"/>
<stop offset="0.77" stop-color="#48FEF3"/>
<stop offset="0.95" stop-color="#90FFF8"/>
</linearGradient>
<linearGradient id="paint3_linear_1727_2281" x1="42.5885" y1="123.844" x2="42.4845" y2="318.602" gradientUnits="userSpaceOnUse">
<stop stop-color="#FF0000" stop-opacity="0"/>
<stop offset="0.5" stop-color="#FF0000" stop-opacity="0.5"/>
<stop offset="1" stop-color="#FF0000"/>
</linearGradient>
<linearGradient id="paint4_linear_1727_2281" x1="42.5825" y1="-72.6713" x2="42.4785" y2="153.411" gradientUnits="userSpaceOnUse">
<stop stop-color="#90FFF8"/>
<stop offset="0.3" stop-color="#48FEF3"/>
<stop offset="0.6" stop-color="#00D3C6"/>
<stop offset="0.77" stop-color="#48FEF3"/>
<stop offset="0.95" stop-color="#90FFF8"/>
</linearGradient>
<linearGradient id="paint5_linear_1727_2281" x1="42.5825" y1="380.032" x2="42.6865" y2="153.949" gradientUnits="userSpaceOnUse">
<stop stop-color="#90FFF8"/>
<stop offset="0.3" stop-color="#48FEF3"/>
<stop offset="0.6" stop-color="#00D3C6"/>
<stop offset="0.77" stop-color="#48FEF3"/>
<stop offset="0.95" stop-color="#90FFF8"/>
</linearGradient>
<linearGradient id="paint6_linear_1727_2281" x1="70.1597" y1="71.8452" x2="70.0557" y2="289.816" gradientUnits="userSpaceOnUse">
<stop stop-color="#FF0000" stop-opacity="0"/>
<stop offset="0.5" stop-color="#FF0000" stop-opacity="0.5"/>
<stop offset="1" stop-color="#FF0000"/>
</linearGradient>
<linearGradient id="paint7_linear_1727_2281" x1="69.3501" y1="-126.966" x2="69.248" y2="97.0545" gradientUnits="userSpaceOnUse">
<stop stop-color="#90FFF8"/>
<stop offset="0.3" stop-color="#48FEF3"/>
<stop offset="0.6" stop-color="#00D3C6"/>
<stop offset="0.77" stop-color="#48FEF3"/>
<stop offset="0.95" stop-color="#90FFF8"/>
</linearGradient>
<linearGradient id="paint8_linear_1727_2281" x1="69.3501" y1="378.212" x2="69.4522" y2="154.192" gradientUnits="userSpaceOnUse">
<stop stop-color="#90FFF8"/>
<stop offset="0.3" stop-color="#48FEF3"/>
<stop offset="0.6" stop-color="#00D3C6"/>
<stop offset="0.77" stop-color="#48FEF3"/>
<stop offset="0.95" stop-color="#90FFF8"/>
</linearGradient>
<linearGradient id="paint9_linear_1727_2281" x1="97.0786" y1="23.6218" x2="96.9746" y2="262.338" gradientUnits="userSpaceOnUse">
<stop stop-color="#FF0000" stop-opacity="0"/>
<stop offset="0.5" stop-color="#FF0000" stop-opacity="0.5"/>
<stop offset="1" stop-color="#FF0000"/>
</linearGradient>
<linearGradient id="paint10_linear_1727_2281" x1="97.1372" y1="-172.926" x2="97.0351" y2="51.0953" gradientUnits="userSpaceOnUse">
<stop stop-color="#90FFF8"/>
<stop offset="0.3" stop-color="#48FEF3"/>
<stop offset="0.6" stop-color="#00D3C6"/>
<stop offset="0.77" stop-color="#48FEF3"/>
<stop offset="0.95" stop-color="#90FFF8"/>
</linearGradient>
<linearGradient id="paint11_linear_1727_2281" x1="97.1372" y1="387.144" x2="97.2393" y2="163.123" gradientUnits="userSpaceOnUse">
<stop stop-color="#90FFF8"/>
<stop offset="0.3" stop-color="#48FEF3"/>
<stop offset="0.6" stop-color="#00D3C6"/>
<stop offset="0.77" stop-color="#48FEF3"/>
<stop offset="0.95" stop-color="#90FFF8"/>
</linearGradient>
<linearGradient id="paint12_linear_1727_2281" x1="15.017" y1="514.605" x2="14.913" y2="340.241" gradientUnits="userSpaceOnUse">
<stop stop-color="#FF0000" stop-opacity="0"/>
<stop offset="0.5" stop-color="#FF0000" stop-opacity="0.5"/>
<stop offset="1" stop-color="#FF0000"/>
</linearGradient>
<linearGradient id="paint13_linear_1727_2281" x1="15.0131" y1="687.984" x2="14.9091" y2="503.814" gradientUnits="userSpaceOnUse">
<stop stop-color="#90FFF8"/>
<stop offset="0.3" stop-color="#48FEF3"/>
<stop offset="0.6" stop-color="#00D3C6"/>
<stop offset="0.77" stop-color="#48FEF3"/>
<stop offset="0.95" stop-color="#90FFF8"/>
</linearGradient>
<linearGradient id="paint14_linear_1727_2281" x1="15.0131" y1="321.122" x2="15.1171" y2="505.292" gradientUnits="userSpaceOnUse">
<stop stop-color="#90FFF8"/>
<stop offset="0.3" stop-color="#48FEF3"/>
<stop offset="0.6" stop-color="#00D3C6"/>
<stop offset="0.77" stop-color="#48FEF3"/>
<stop offset="0.95" stop-color="#90FFF8"/>
</linearGradient>
<linearGradient id="paint15_linear_1727_2281" x1="42.5885" y1="557.679" x2="42.4845" y2="362.921" gradientUnits="userSpaceOnUse">
<stop stop-color="#FF0000" stop-opacity="0"/>
<stop offset="0.5" stop-color="#FF0000" stop-opacity="0.5"/>
<stop offset="1" stop-color="#FF0000"/>
</linearGradient>
<linearGradient id="paint16_linear_1727_2281" x1="42.5825" y1="754.195" x2="42.4785" y2="528.112" gradientUnits="userSpaceOnUse">
<stop stop-color="#90FFF8"/>
<stop offset="0.3" stop-color="#48FEF3"/>
<stop offset="0.6" stop-color="#00D3C6"/>
<stop offset="0.77" stop-color="#48FEF3"/>
<stop offset="0.95" stop-color="#90FFF8"/>
</linearGradient>
<linearGradient id="paint17_linear_1727_2281" x1="42.5825" y1="301.491" x2="42.6865" y2="527.574" gradientUnits="userSpaceOnUse">
<stop stop-color="#90FFF8"/>
<stop offset="0.3" stop-color="#48FEF3"/>
<stop offset="0.6" stop-color="#00D3C6"/>
<stop offset="0.77" stop-color="#48FEF3"/>
<stop offset="0.95" stop-color="#90FFF8"/>
</linearGradient>
<linearGradient id="paint18_linear_1727_2281" x1="70.1597" y1="609.678" x2="70.0557" y2="391.707" gradientUnits="userSpaceOnUse">
<stop stop-color="#FF0000" stop-opacity="0"/>
<stop offset="0.5" stop-color="#FF0000" stop-opacity="0.5"/>
<stop offset="1" stop-color="#FF0000"/>
</linearGradient>
<linearGradient id="paint19_linear_1727_2281" x1="69.3501" y1="808.49" x2="69.248" y2="584.469" gradientUnits="userSpaceOnUse">
<stop stop-color="#90FFF8"/>
<stop offset="0.3" stop-color="#48FEF3"/>
<stop offset="0.6" stop-color="#00D3C6"/>
<stop offset="0.77" stop-color="#48FEF3"/>
<stop offset="0.95" stop-color="#90FFF8"/>
</linearGradient>
<linearGradient id="paint20_linear_1727_2281" x1="69.3501" y1="303.311" x2="69.4522" y2="527.332" gradientUnits="userSpaceOnUse">
<stop stop-color="#90FFF8"/>
<stop offset="0.3" stop-color="#48FEF3"/>
<stop offset="0.6" stop-color="#00D3C6"/>
<stop offset="0.77" stop-color="#48FEF3"/>
<stop offset="0.95" stop-color="#90FFF8"/>
</linearGradient>
<linearGradient id="paint21_linear_1727_2281" x1="97.0786" y1="657.902" x2="96.9746" y2="419.185" gradientUnits="userSpaceOnUse">
<stop stop-color="#FF0000" stop-opacity="0"/>
<stop offset="0.5" stop-color="#FF0000" stop-opacity="0.5"/>
<stop offset="1" stop-color="#FF0000"/>
</linearGradient>
<linearGradient id="paint22_linear_1727_2281" x1="97.1372" y1="854.449" x2="97.0351" y2="630.428" gradientUnits="userSpaceOnUse">
<stop stop-color="#90FFF8"/>
<stop offset="0.3" stop-color="#48FEF3"/>
<stop offset="0.6" stop-color="#00D3C6"/>
<stop offset="0.77" stop-color="#48FEF3"/>
<stop offset="0.95" stop-color="#90FFF8"/>
</linearGradient>
<linearGradient id="paint23_linear_1727_2281" x1="97.1372" y1="294.38" x2="97.2393" y2="518.4" gradientUnits="userSpaceOnUse">
<stop stop-color="#90FFF8"/>
<stop offset="0.3" stop-color="#48FEF3"/>
<stop offset="0.6" stop-color="#00D3C6"/>
<stop offset="0.77" stop-color="#48FEF3"/>
<stop offset="0.95" stop-color="#90FFF8"/>
</linearGradient>
</defs>
</svg>
